# xmcd
#
# Track frame offsets: 
#        150
#        21240
#        43037
#        66422
#        72872
#        93525
#        109257
#        125450
#        142290
#        162657
#        185700
#        203082
#        266780
#        287117
#
# Disc length: 4218 seconds
#
# Revision: 0
# Processed by: cddbd v1.4PL0 Copyright (c) Steve Scherf et al.
# Submitted via: ExactAudioCopy v0.90b2
#
DISCID=e810780e
DTITLE=伍佰 - 梦的河流
DYEAR=2000
DGENRE=Pop
TTITLE0=翅膀
TTITLE1=蛇
TTITLE2=路
TTITLE3=流星
TTITLE4=你爱我
TTITLE5=一点点
TTITLE6=九重天
TTITLE7=断了
TTITLE8=沙漠里的黑洞
TTITLE9=暴雨
TTITLE10=小帆船
TTITLE11=梦的河流
TTITLE12=浪人情歌
TTITLE13=挪威的森林
EXTD=
EXTT0=
EXTT1=
EXTT2=
EXTT3=
EXTT4=
EXTT5=
EXTT6=
EXTT7=
EXTT8=
EXTT9=
EXTT10=
EXTT11=
EXTT12=
EXTT13=
PLAYORDER=
